<svg width="51" height="11" viewBox="0 0 51 11"  xmlns="http://www.w3.org/2000/svg">
<g filter="url(#filter0_b_2_8)">
<path d="M1.30611 10L1.10211 1.972C0.990115 1.98 0.882115 1.992 0.778115 2.008C0.682115 2.024 0.594115 2.04 0.514115 2.056L0.274115 0.999999C0.498115 0.951999 0.786115 0.904 1.13811 0.856C1.49811 0.799999 1.88611 0.747999 2.30211 0.7C2.72611 0.643999 3.14211 0.599999 3.55011 0.568C3.95811 0.536 4.32612 0.52 4.65412 0.52C5.24612 0.52 5.77012 0.612 6.22612 0.796C6.69011 0.98 7.05011 1.252 7.30611 1.612C7.57012 1.964 7.70212 2.396 7.70212 2.908C7.70212 3.46 7.57012 3.908 7.30611 4.252C7.04211 4.596 6.68612 4.812 6.23812 4.9L6.25011 4.924C6.58611 4.956 6.89411 5.076 7.17412 5.284C7.46212 5.492 7.69012 5.772 7.85811 6.124C8.03412 6.476 8.12212 6.896 8.12212 7.384C8.12212 7.96 7.98212 8.444 7.70212 8.836C7.43012 9.22 7.04212 9.512 6.53812 9.712C6.04212 9.904 5.45812 10 4.78612 10H1.30611ZM2.74611 4.684C2.93811 4.684 3.15811 4.68 3.40612 4.672C3.66212 4.664 3.91012 4.652 4.15012 4.636C4.39812 4.62 4.60212 4.596 4.76212 4.564C5.16212 4.484 5.48212 4.328 5.72212 4.096C5.97011 3.864 6.09411 3.56 6.09411 3.184C6.09411 2.888 6.02211 2.632 5.87812 2.416C5.73412 2.2 5.54612 2.032 5.31412 1.912C5.08212 1.792 4.82612 1.732 4.54612 1.732C3.96211 1.732 3.36211 1.756 2.74611 1.804V4.684ZM3.04612 8.86C3.43812 8.86 3.83412 8.848 4.23412 8.824C4.63411 8.8 4.97011 8.76 5.24212 8.704C5.69011 8.608 6.02211 8.428 6.23812 8.164C6.45412 7.892 6.56212 7.552 6.56212 7.144C6.56212 6.848 6.48212 6.604 6.32212 6.412C6.16212 6.212 5.95412 6.064 5.69812 5.968C5.45012 5.872 5.17812 5.824 4.88212 5.824H2.74611V8.86H3.04612ZM14.4783 10.12C14.2783 9.96 14.1223 9.808 14.0103 9.664C13.9063 9.512 13.8183 9.332 13.7463 9.124C13.6023 9.372 13.3983 9.572 13.1343 9.724C12.8703 9.868 12.5743 9.972 12.2463 10.036C11.9263 10.1 11.5983 10.132 11.2623 10.132C10.5823 10.132 10.0703 9.976 9.72627 9.664C9.38227 9.352 9.20227 8.916 9.18627 8.356V8.308C9.18627 7.668 9.39027 7.164 9.79827 6.796C10.2063 6.428 10.7743 6.164 11.5023 6.004C11.9983 5.892 12.4143 5.772 12.7503 5.644C13.0943 5.508 13.2663 5.356 13.2663 5.188C13.2663 4.652 12.8463 4.384 12.0063 4.384C11.5823 4.384 11.1703 4.468 10.7703 4.636C10.3703 4.796 10.0423 4.988 9.78627 5.212L9.30627 4.348C9.58627 3.98 9.97027 3.696 10.4583 3.496C10.9543 3.296 11.5143 3.196 12.1383 3.196C13.0663 3.196 13.7623 3.368 14.2263 3.712C14.6983 4.048 14.9343 4.58 14.9343 5.308V8.032C14.9343 8.344 14.9943 8.652 15.1143 8.956C15.2343 9.26 15.4063 9.524 15.6303 9.748L14.4783 10.12ZM10.8423 8.188C10.8503 8.404 10.9143 8.588 11.0343 8.74C11.1543 8.892 11.3343 8.968 11.5743 8.968C11.9263 8.968 12.2703 8.868 12.6063 8.668C12.9423 8.468 13.1743 8.216 13.3023 7.912C13.3423 7.824 13.3663 7.716 13.3743 7.588C13.3903 7.452 13.3983 7.312 13.3983 7.168C13.3983 6.96 13.3903 6.772 13.3743 6.604C13.3583 6.436 13.3503 6.352 13.3503 6.352C13.1743 6.488 12.9463 6.604 12.6663 6.7C12.3943 6.796 12.1063 6.888 11.8023 6.976C11.5063 7.056 11.2703 7.188 11.0943 7.372C10.9263 7.556 10.8423 7.8 10.8423 8.104V8.188ZM16.861 10.156V0.4L18.601 0.64L18.361 10L16.861 10.156ZM20.3766 10.156V0.4L22.1166 0.64L21.8766 10L20.3766 10.156ZM29.6283 8.824C29.3963 9.136 29.1483 9.388 28.8843 9.58C28.6283 9.772 28.3323 9.912 27.9963 10C27.6603 10.088 27.2483 10.132 26.7603 10.132C26.0643 10.132 25.4683 9.98 24.9723 9.676C24.4763 9.364 24.0963 8.948 23.8323 8.428C23.5683 7.9 23.4363 7.312 23.4363 6.664C23.4363 6.008 23.5723 5.42 23.8443 4.9C24.1163 4.372 24.4963 3.956 24.9843 3.652C25.4803 3.348 26.0563 3.196 26.7123 3.196C27.3523 3.196 27.9003 3.344 28.3563 3.64C28.8203 3.928 29.1763 4.344 29.4243 4.888C29.6723 5.424 29.7963 6.064 29.7963 6.808V7.012H25.4523L25.1883 6.076L28.1403 5.836C28.1163 5.412 27.9963 5.068 27.7803 4.804C27.5723 4.532 27.2363 4.396 26.7723 4.396C26.2363 4.396 25.7923 4.596 25.4403 4.996C25.0963 5.388 24.9243 5.948 24.9243 6.676C24.9243 7.196 25.0203 7.628 25.2123 7.972C25.4123 8.308 25.6603 8.56 25.9563 8.728C26.2603 8.888 26.5643 8.968 26.8683 8.968C27.3803 8.968 27.8363 8.884 28.2363 8.716C28.6443 8.54 28.9643 8.304 29.1963 8.008L29.6283 8.824ZM31.5639 10L31.3599 1.972C31.2479 1.98 31.1399 1.992 31.0359 2.008C30.9399 2.024 30.8519 2.04 30.7719 2.056L30.5319 0.999999C30.7559 0.951999 31.0439 0.904 31.3959 0.856C31.7559 0.799999 32.1439 0.747999 32.5599 0.7C32.9839 0.643999 33.3999 0.599999 33.8079 0.568C34.2159 0.536 34.5839 0.52 34.9119 0.52C35.5039 0.52 36.0279 0.612 36.4839 0.796C36.9479 0.98 37.3079 1.252 37.5639 1.612C37.8279 1.964 37.9599 2.396 37.9599 2.908C37.9599 3.46 37.8279 3.908 37.5639 4.252C37.2999 4.596 36.9439 4.812 36.4959 4.9L36.5079 4.924C36.8439 4.956 37.1519 5.076 37.4319 5.284C37.7199 5.492 37.9479 5.772 38.1159 6.124C38.2919 6.476 38.3799 6.896 38.3799 7.384C38.3799 7.96 38.2399 8.444 37.9599 8.836C37.6879 9.22 37.2999 9.512 36.7959 9.712C36.2999 9.904 35.7159 10 35.0439 10H31.5639ZM33.0039 4.684C33.1959 4.684 33.4159 4.68 33.6639 4.672C33.9199 4.664 34.1679 4.652 34.4079 4.636C34.6559 4.62 34.8599 4.596 35.0199 4.564C35.4199 4.484 35.7399 4.328 35.9799 4.096C36.2279 3.864 36.3519 3.56 36.3519 3.184C36.3519 2.888 36.2799 2.632 36.1359 2.416C35.9919 2.2 35.8039 2.032 35.5719 1.912C35.3399 1.792 35.0839 1.732 34.8039 1.732C34.2199 1.732 33.6199 1.756 33.0039 1.804V4.684ZM33.3039 8.86C33.6959 8.86 34.0919 8.848 34.4919 8.824C34.8919 8.8 35.2279 8.76 35.4999 8.704C35.9479 8.608 36.2799 8.428 36.4959 8.164C36.7119 7.892 36.8199 7.552 36.8199 7.144C36.8199 6.848 36.7399 6.604 36.5799 6.412C36.4199 6.212 36.2119 6.064 35.9559 5.968C35.7079 5.872 35.4359 5.824 35.1399 5.824H33.0039V8.86H33.3039ZM42.8521 10.132C42.1561 10.132 41.5521 9.992 41.0401 9.712C40.5361 9.424 40.1441 9.02 39.8641 8.5C39.5841 7.98 39.4441 7.372 39.4441 6.676C39.4441 5.972 39.5841 5.36 39.8641 4.84C40.1441 4.32 40.5361 3.916 41.0401 3.628C41.5521 3.34 42.1561 3.196 42.8521 3.196C43.5561 3.196 44.1601 3.34 44.6641 3.628C45.1761 3.916 45.5681 4.32 45.8401 4.84C46.1121 5.36 46.2481 5.972 46.2481 6.676C46.2481 7.372 46.1121 7.98 45.8401 8.5C45.5681 9.02 45.1761 9.424 44.6641 9.712C44.1601 9.992 43.5561 10.132 42.8521 10.132ZM43.0441 9.028C43.5481 8.988 43.9401 8.776 44.2201 8.392C44.5001 8 44.6401 7.5 44.6401 6.892C44.6401 6.828 44.6401 6.768 44.6401 6.712C44.6401 6.648 44.6361 6.584 44.6281 6.52C44.5721 5.832 44.3801 5.292 44.0521 4.9C43.7321 4.508 43.3241 4.312 42.8281 4.312C42.7961 4.312 42.7681 4.316 42.7441 4.324C42.7201 4.324 42.6921 4.324 42.6601 4.324C42.1721 4.356 41.7801 4.568 41.4841 4.96C41.1961 5.352 41.0521 5.856 41.0521 6.472C41.0521 6.528 41.0521 6.588 41.0521 6.652C41.0521 6.708 41.0561 6.768 41.0641 6.832C41.1201 7.512 41.3161 8.052 41.6521 8.452C41.9881 8.844 42.4001 9.04 42.8881 9.04C42.9121 9.04 42.9361 9.04 42.9601 9.04C42.9921 9.032 43.0201 9.028 43.0441 9.028ZM50.6931 10.132C49.7651 10.132 49.0931 9.948 48.6771 9.58C48.2611 9.212 48.0531 8.68 48.0531 7.984V4.456H47.1411L46.9011 3.532L48.0531 3.412V1.252L49.7451 1.492L49.6851 3.244L50.8851 3.124V4.456H49.6371L49.5171 7.768V7.888C49.5171 8.28 49.6171 8.592 49.8171 8.824C50.0251 9.048 50.3971 9.16 50.9331 9.16L50.6931 10.132Z" fill="#FF0000"/>
</g>
<defs>
<filter id="filter0_b_2_8" x="-3.72589" y="-3.60001" width="58.6589" height="17.756" filterUnits="userSpaceOnUse" color-interpolation-filters="sRGB">
<feFlood flood-opacity="0" result="BackgroundImageFix"/>
<feGaussianBlur in="BackgroundImage" stdDeviation="2"/>
<feComposite in2="SourceAlpha" operator="in" result="effect1_backgroundBlur_2_8"/>
<feBlend mode="normal" in="SourceGraphic" in2="effect1_backgroundBlur_2_8" result="shape"/>
</filter>
</defs>
</svg>
