<svg width="128" height="128" viewBox="0 0 128 128" fill="none" xmlns="http://www.w3.org/2000/svg">
<circle cx="64" cy="64" r="64" fill="#FFCD29"/>
<path d="M22.2846 73V55.5455H28.6766C29.9153 55.5455 30.9408 55.75 31.7533 56.1591C32.5658 56.5625 33.1738 57.1108 33.5772 57.804C33.9806 58.4915 34.1823 59.267 34.1823 60.1307C34.1823 60.858 34.0488 61.4716 33.7817 61.9716C33.5147 62.4659 33.1567 62.8636 32.7079 63.1648C32.2647 63.4602 31.7761 63.6761 31.242 63.8125V63.983C31.8215 64.0114 32.3869 64.1989 32.938 64.5455C33.4948 64.8864 33.955 65.3722 34.3187 66.0028C34.6823 66.6335 34.8641 67.4006 34.8641 68.304C34.8641 69.196 34.6539 69.9972 34.2334 70.7074C33.8187 71.4119 33.1766 71.9716 32.3073 72.3864C31.438 72.7955 30.3272 73 28.9749 73H22.2846ZM24.9181 70.7415H28.7192C29.9806 70.7415 30.884 70.4972 31.4295 70.0085C31.9749 69.5199 32.2477 68.9091 32.2477 68.1761C32.2477 67.625 32.1084 67.1193 31.83 66.6591C31.5516 66.1989 31.1539 65.8324 30.6369 65.5597C30.1255 65.2869 29.5175 65.1506 28.813 65.1506H24.9181V70.7415ZM24.9181 63.0966H28.4465C29.0374 63.0966 29.5687 62.983 30.0403 62.7557C30.5175 62.5284 30.8954 62.2102 31.1738 61.8011C31.4579 61.3864 31.5999 60.8977 31.5999 60.3352C31.5999 59.6136 31.3471 59.0085 30.8414 58.5199C30.3357 58.0312 29.5602 57.7869 28.5147 57.7869H24.9181V63.0966ZM41.1368 73.2898C40.3073 73.2898 39.5573 73.1364 38.8868 72.8295C38.2164 72.517 37.6851 72.0653 37.2931 71.4744C36.9067 70.8835 36.7135 70.1591 36.7135 69.3011C36.7135 68.5625 36.8556 67.9545 37.1397 67.4773C37.4238 67 37.8073 66.6222 38.2902 66.3438C38.7732 66.0653 39.313 65.8551 39.9095 65.7131C40.5061 65.571 41.1141 65.4631 41.7334 65.3892C42.5175 65.2983 43.1539 65.2244 43.6425 65.1676C44.1311 65.1051 44.4863 65.0057 44.7078 64.8693C44.9294 64.733 45.0402 64.5114 45.0402 64.2045V64.1449C45.0402 63.4006 44.83 62.8239 44.4095 62.4148C43.9948 62.0057 43.3755 61.8011 42.5516 61.8011C41.6936 61.8011 41.0175 61.9915 40.5232 62.3722C40.0345 62.7472 39.6965 63.1648 39.509 63.625L37.1141 63.0795C37.3982 62.2841 37.813 61.642 38.3584 61.1534C38.9095 60.6591 39.5431 60.3011 40.259 60.0795C40.9749 59.8523 41.7277 59.7386 42.5175 59.7386C43.0402 59.7386 43.5942 59.8011 44.1794 59.9261C44.7703 60.0455 45.3215 60.267 45.8328 60.5909C46.3499 60.9148 46.7732 61.3778 47.1027 61.9801C47.4323 62.5767 47.597 63.3523 47.597 64.3068V73H45.1084V71.2102H45.0061C44.8414 71.5398 44.5942 71.8636 44.2647 72.1818C43.9351 72.5 43.5118 72.7642 42.9948 72.9744C42.4777 73.1847 41.8584 73.2898 41.1368 73.2898ZM41.6908 71.2443C42.3953 71.2443 42.9976 71.1051 43.4976 70.8267C44.0033 70.5483 44.3868 70.1847 44.6482 69.7358C44.9152 69.2812 45.0488 68.7955 45.0488 68.2784V66.5909C44.9578 66.6818 44.7817 66.767 44.5203 66.8466C44.2647 66.9205 43.972 66.9858 43.6425 67.0426C43.313 67.0937 42.9919 67.142 42.6794 67.1875C42.3669 67.2273 42.1056 67.2614 41.8953 67.2898C41.401 67.3523 40.9493 67.4574 40.5402 67.6051C40.1368 67.7528 39.813 67.9659 39.5686 68.2443C39.33 68.517 39.2107 68.8807 39.2107 69.3352C39.2107 69.9659 39.4436 70.4432 39.9095 70.767C40.3755 71.0852 40.9692 71.2443 41.6908 71.2443ZM53.0835 55.5455V73H50.5352V55.5455H53.0835ZM58.6041 55.5455V73H56.0558V55.5455H58.6041ZM67.2184 73.2642C65.9286 73.2642 64.8178 72.9886 63.886 72.4375C62.9599 71.8807 62.244 71.0994 61.7383 70.0938C61.2383 69.0824 60.9883 67.8977 60.9883 66.5398C60.9883 65.1989 61.2383 64.017 61.7383 62.9943C62.244 61.9716 62.9485 61.1733 63.8519 60.5994C64.761 60.0256 65.8235 59.7386 67.0394 59.7386C67.7781 59.7386 68.494 59.8608 69.1871 60.1051C69.8803 60.3494 70.5025 60.733 71.0536 61.2557C71.6048 61.7784 72.0394 62.4574 72.3576 63.2926C72.6758 64.1222 72.8349 65.1307 72.8349 66.3182V67.2216H62.4286V65.3125H70.3377C70.3377 64.642 70.2013 64.0483 69.9286 63.5312C69.6559 63.0085 69.2724 62.5966 68.7781 62.2955C68.2894 61.9943 67.7156 61.8438 67.0565 61.8438C66.3406 61.8438 65.7156 62.0199 65.1815 62.3722C64.6531 62.7187 64.244 63.1733 63.9542 63.7358C63.6701 64.2926 63.5281 64.8977 63.5281 65.5511V67.0426C63.5281 67.9176 63.6815 68.6619 63.9883 69.2756C64.3008 69.8892 64.7354 70.358 65.2923 70.6818C65.8491 71 66.4996 71.1591 67.244 71.1591C67.7269 71.1591 68.1673 71.0909 68.565 70.9545C68.9627 70.8125 69.3065 70.6023 69.5962 70.3239C69.886 70.0455 70.1076 69.7017 70.261 69.2926L72.6729 69.7273C72.4798 70.4375 72.1332 71.0597 71.6332 71.5938C71.1388 72.1222 70.5167 72.5341 69.7667 72.8295C69.0224 73.1193 68.1729 73.2642 67.2184 73.2642ZM75.2063 73V59.9091H77.6694V61.9886H77.8057C78.0444 61.2841 78.4648 60.7301 79.0671 60.3267C79.675 59.9176 80.3625 59.7131 81.1296 59.7131C81.2887 59.7131 81.4762 59.7187 81.6921 59.7301C81.9137 59.7415 82.087 59.7557 82.212 59.7727V62.2102C82.1097 62.1818 81.9279 62.1506 81.6665 62.1165C81.4052 62.0767 81.1438 62.0568 80.8824 62.0568C80.2802 62.0568 79.7432 62.1847 79.2716 62.4403C78.8057 62.6903 78.4364 63.0398 78.1637 63.4886C77.8909 63.9318 77.7546 64.4375 77.7546 65.0057V73H75.2063ZM83.9612 73V59.9091H86.5095V73H83.9612ZM85.2482 57.8892C84.805 57.8892 84.4243 57.7415 84.1061 57.446C83.7936 57.1449 83.6374 56.7869 83.6374 56.3722C83.6374 55.9517 83.7936 55.5937 84.1061 55.2983C84.4243 54.9972 84.805 54.8466 85.2482 54.8466C85.6913 54.8466 86.0692 54.9972 86.3817 55.2983C86.6999 55.5937 86.859 55.9517 86.859 56.3722C86.859 56.7869 86.6999 57.1449 86.3817 57.446C86.0692 57.7415 85.6913 57.8892 85.2482 57.8892ZM92.0301 65.2273V73H89.4818V59.9091H91.9278V62.0398H92.0897C92.3909 61.3466 92.8625 60.7898 93.5045 60.3693C94.1522 59.9489 94.9676 59.7386 95.9505 59.7386C96.8426 59.7386 97.6238 59.9261 98.2943 60.3011C98.9647 60.6705 99.4846 61.2216 99.8539 61.9545C100.223 62.6875 100.408 63.5937 100.408 64.6733V73H97.8596V64.9801C97.8596 64.0312 97.6125 63.2898 97.1182 62.7557C96.6238 62.2159 95.9449 61.946 95.0812 61.946C94.4903 61.946 93.9647 62.0739 93.5045 62.3295C93.05 62.5852 92.6892 62.9602 92.4221 63.4545C92.1608 63.9432 92.0301 64.5341 92.0301 65.2273ZM103.37 73V59.9091H105.918V73H103.37ZM104.656 57.8892C104.213 57.8892 103.833 57.7415 103.514 57.446C103.202 57.1449 103.046 56.7869 103.046 56.3722C103.046 55.9517 103.202 55.5937 103.514 55.2983C103.833 54.9972 104.213 54.8466 104.656 54.8466C105.1 54.8466 105.477 54.9972 105.79 55.2983C106.108 55.5937 106.267 55.9517 106.267 56.3722C106.267 56.7869 106.108 57.1449 105.79 57.446C105.477 57.7415 105.1 57.8892 104.656 57.8892Z" fill="black" fill-opacity="0.8"/>
</svg>
